<?xml version="1.0" encoding="UTF-8"?>
<svg width="775" height="493" viewBox="0 0 100 100" fill="none" xmlns="http://www.w3.org/2000/svg">
<rect width="49" height="49" fill="black"/>
<path d="M302.918 243.864C303.635 244.376 304.838 244.939 306.528 245.554C308.218 246.168 310.163 246.475 312.365 246.475C314.515 246.475 316.23 246.117 317.51 245.4C318.79 244.632 319.763 243.48 320.429 241.944C321.094 240.408 321.53 238.514 321.734 236.261C321.939 233.957 322.042 231.269 322.042 228.197V200.472H332.64V228.197C332.64 232.344 332.41 236.133 331.949 239.563C331.539 242.942 330.618 245.835 329.184 248.242C327.802 250.648 325.779 252.517 323.117 253.848C320.454 255.179 316.87 255.845 312.365 255.845C307.757 255.845 303.814 254.718 300.538 252.466L302.918 243.864Z" fill="black"/>
<path d="M343.408 255V200.472H363.223C367.677 200.472 371.568 201.189 374.896 202.622C378.275 204.056 381.091 206.002 383.344 208.459C385.597 210.917 387.287 213.81 388.413 217.138C389.539 220.414 390.103 223.922 390.103 227.659C390.103 231.806 389.463 235.57 388.183 238.949C386.954 242.277 385.162 245.144 382.807 247.55C380.451 249.906 377.61 251.749 374.282 253.08C371.005 254.36 367.319 255 363.223 255H343.408ZM379.427 227.659C379.427 225.048 379.069 222.642 378.352 220.44C377.635 218.238 376.586 216.344 375.203 214.757C373.821 213.17 372.106 211.941 370.058 211.07C368.061 210.2 365.783 209.765 363.223 209.765H354.007V245.707H363.223C365.834 245.707 368.138 245.246 370.135 244.325C372.183 243.403 373.872 242.149 375.203 240.562C376.586 238.923 377.635 237.003 378.352 234.802C379.069 232.6 379.427 230.219 379.427 227.659Z" fill="black"/>
<path d="M416.047 255.768C412.822 255.768 409.903 255.23 407.292 254.155C404.681 253.029 402.454 251.518 400.61 249.624C398.767 247.73 397.334 245.528 396.31 243.019C395.337 240.51 394.85 237.874 394.85 235.109C394.85 232.242 395.337 229.554 396.31 227.045C397.282 224.485 398.69 222.258 400.534 220.363C402.377 218.418 404.604 216.882 407.215 215.755C409.878 214.629 412.847 214.066 416.124 214.066C419.401 214.066 422.319 214.629 424.879 215.755C427.49 216.882 429.692 218.392 431.484 220.286C433.327 222.181 434.71 224.382 435.631 226.891C436.604 229.4 437.09 232.011 437.09 234.725C437.09 235.39 437.065 236.03 437.014 236.645C437.014 237.259 436.962 237.771 436.86 238.181H405.756C405.91 239.768 406.294 241.176 406.908 242.405C407.522 243.634 408.316 244.683 409.289 245.554C410.262 246.424 411.362 247.09 412.591 247.55C413.82 248.011 415.1 248.242 416.431 248.242C418.479 248.242 420.399 247.755 422.191 246.782C424.034 245.758 425.289 244.427 425.954 242.789L434.786 245.246C433.302 248.318 430.921 250.853 427.644 252.85C424.418 254.795 420.553 255.768 416.047 255.768ZM426.492 231.499C426.236 228.478 425.11 226.072 423.113 224.28C421.167 222.437 418.786 221.515 415.97 221.515C414.588 221.515 413.282 221.771 412.054 222.283C410.876 222.744 409.826 223.41 408.905 224.28C407.983 225.15 407.215 226.2 406.601 227.429C406.038 228.658 405.705 230.014 405.602 231.499H426.492Z" fill="black"/>
<path d="M453.139 255L438.316 214.757H448.915L459.129 246.629L469.42 214.757H479.097L464.275 255H453.139Z" fill="black"/>
</svg>
