<?xml version="1.0" encoding="UTF-8"?>
<svg width="42" height="42" viewBox="0 0 42 42" fill="none"
  xmlns="http://www.w3.org/2000/svg">
  <path d="M22.3684 39H5V3H22.3684C25.2186 3 27.6791 3.48 29.75 4.44C31.8209 5.4 33.4464 6.72857 34.6265 8.42571C35.8067 10.1229 36.664 11.9743 37.1984 13.98C37.7328 15.9857 38 18.1886 38 20.5886C38 22.9886 37.7217 25.2343 37.165 27.3257C36.6083 29.4171 35.751 31.3629 34.5931 33.1629C33.4352 34.9629 31.8097 36.3857 29.7166 37.4314C27.6235 38.4771 25.1741 39 22.3684 39ZM33.2277 31.7743C34.1852 30.1114 34.8866 28.3457 35.332 26.4771C35.7773 24.6086 36 22.4571 36 20.0229C36 17.5886 35.6326 15.2486 34.8978 13.0029C34.163 10.7571 32.7697 8.82 30.7227 7.19143C28.6741 5.56286 25.5304 5 22.3684 5H7V37H22.117C24.5218 37 26.8553 36.7543 28.6144 35.76C30.3735 34.7657 32.2702 33.4371 33.2277 31.7743Z" fill="#00FEF6"/>
  <path d="M17.5 27.3944H17.25V27.6444V28.9993V29V29.25H17.5C18.122 29.25 18.629 29.2297 19.0201 29.1895L19.0218 29.1893C19.9944 29.0827 20.7223 28.8036 21.1094 28.2871C21.552 27.7109 21.75 26.8393 21.75 25.7208L21.75 25.7204L21.7291 13.9996L21.7287 13.75H21.4791H19.8793H19.6293V14V25.5043C19.6293 25.9787 19.5936 26.3488 19.5279 26.6215C19.4609 26.9002 19.3708 27.0422 19.2916 27.1053L19.2915 27.1054C19.1968 27.1809 19.0126 27.2577 18.7014 27.3125C18.3967 27.3662 17.9977 27.3944 17.5 27.3944Z" fill="#00FEF6" stroke="#00FEF6" stroke-width="0.5"/>
</svg>
