<svg xmlns="http://www.w3.org/2000/svg" width="22" height="27" viewBox="0 0 22 27" fill="none">
    <path d="M11 0C10.1383 0 9.51499 0.59838 9.51499 1.45062V19.5292L9.69833 23.9899L10.6333 23.6635L5.07833 17.5527L2.45667 15.0322C2.2 14.7784 1.815 14.6333 1.42999 14.6333C0.605019 14.6333 0 15.2679 0 16.0658C0 16.4466 0.14665 16.7911 0.458325 17.1356L9.89999 26.4923C10.2117 26.8187 10.5967 27 11 27C11.4033 27 11.7883 26.8187 12.1 26.4923L21.5417 17.1356C21.8533 16.7911 22 16.4466 22 16.0658C22 15.2679 21.395 14.6333 20.57 14.6333C20.185 14.6333 19.8 14.7784 19.5433 15.0322L16.9217 17.5527L11.3483 23.6635L12.3017 23.9899L12.485 19.5292V1.45062C12.485 0.59838 11.8617 0 11 0Z" fill="#02FEF6" style="fill:#02FEF6;"/>
  </svg>
