<svg xmlns="http://www.w3.org/2000/svg"
  xmlns:xlink="http://www.w3.org/1999/xlink" width="50px" height="50px" viewBox="0 0 50 49" version="1.1">
    <path style="" d="M 31.492188 25.789062 C 30.597656 25.054688 29.261719 25.167969 28.515625 26.042969 L 27.113281 27.679688 L 27.113281 2.070312 C 27.113281 0.925781 26.167969 0 25 0 C 23.832031 0 22.886719 0.925781 22.886719 2.070312 L 22.886719 27.679688 L 21.484375 26.042969 C 20.738281 25.167969 19.40625 25.054688 18.507812 25.789062 C 17.617188 26.523438 17.5 27.828125 18.25 28.703125 L 23.382812 34.699219 C 23.398438 34.71875 23.421875 34.730469 23.4375 34.75 C 23.5 34.820312 23.570312 34.882812 23.640625 34.9375 C 23.679688 34.972656 23.71875 35.007812 23.765625 35.039062 C 23.84375 35.09375 23.925781 35.140625 24.011719 35.1875 C 24.054688 35.210938 24.09375 35.234375 24.136719 35.253906 C 24.238281 35.296875 24.339844 35.328125 24.445312 35.355469 C 24.484375 35.367188 24.519531 35.382812 24.554688 35.390625 C 24.699219 35.417969 24.847656 35.4375 25 35.4375 C 25.152344 35.4375 25.304688 35.421875 25.445312 35.390625 C 25.484375 35.382812 25.519531 35.367188 25.554688 35.355469 C 25.660156 35.328125 25.765625 35.296875 25.863281 35.253906 C 25.90625 35.234375 25.949219 35.210938 25.992188 35.1875 C 26.078125 35.140625 26.160156 35.09375 26.238281 35.039062 C 26.28125 35.007812 26.320312 34.972656 26.363281 34.9375 C 26.433594 34.878906 26.5 34.820312 26.5625 34.75 C 26.578125 34.730469 26.601562 34.71875 26.617188 34.699219 L 31.75 28.703125 C 32.5 27.828125 32.382812 26.523438 31.492188 25.789062 Z M 31.492188 25.789062 "/>
    <path style="" d="M 39.902344 49 L 10.097656 49 C 7.832031 49 5.988281 47.195312 5.988281 44.972656 L 5.988281 15.765625 C 5.988281 13.546875 7.832031 11.738281 10.097656 11.738281 L 17.753906 11.738281 C 18.921875 11.738281 19.867188 12.664062 19.867188 13.808594 C 19.867188 14.953125 18.921875 15.878906 17.753906 15.878906 L 10.214844 15.878906 L 10.214844 44.859375 L 39.785156 44.859375 L 39.785156 15.878906 L 32.414062 15.878906 C 31.25 15.878906 30.304688 14.953125 30.304688 13.808594 C 30.304688 12.664062 31.25 11.738281 32.414062 11.738281 L 39.902344 11.738281 C 42.167969 11.738281 44.011719 13.542969 44.011719 15.761719 L 44.011719 44.972656 C 44.011719 47.195312 42.167969 49 39.902344 49 Z M 39.902344 49 "/>
</svg>
